<mxfile host="drawio-plugin" modified="2023-07-13T17:20:50.712Z" agent="5.0 (Windows NT 6.2; Win64; x64) AppleWebKit/537.36 (KHTML, like Gecko) Chrome/87.0.4280.141 Safari/537.36" etag="VONfkG-g_bUuZB5OAYn1" version="13.7.9" type="embed"><diagram id="lMCECdiOliHJ0kIxP1SO" name="Page-1"><mxGraphModel dx="376" dy="-16050" grid="0" gridSize="10" guides="1" tooltips="1" connect="1" arrows="1" fold="1" page="0" pageScale="1" pageWidth="850" pageHeight="1100" background="#ffffff" math="0" shadow="0"><root><mxCell id="0"/><mxCell id="1" parent="0"/><mxCell id="55" value="" style="group" vertex="1" connectable="0" parent="1"><mxGeometry x="220.99999999999994" y="16575.033877797945" width="74.00000000000006" height="72.96612220205134" as="geometry"/></mxCell><mxCell id="46" value="" style="rounded=0;whiteSpace=wrap;html=1;sketch=0;fontSize=20;fontStyle=1;direction=east;rotation=-180;fillColor=#bac8d3;strokeColor=none;" vertex="1" parent="55"><mxGeometry x="2.842170943040401e-14" y="21.73805202661606" width="74" height="51.228070175438596" as="geometry"/></mxCell><mxCell id="47" value="" style="rounded=0;whiteSpace=wrap;html=1;strokeColor=#23445d;direction=east;rotation=-180;fillColor=#23445D;" vertex="1" parent="55"><mxGeometry x="0.8505747126436916" y="39.66787658802059" width="72.29885057471265" height="5.976608187134502" as="geometry"/></mxCell><mxCell id="48" value="" style="rounded=0;whiteSpace=wrap;html=1;direction=east;rotation=-90;strokeColor=#23445d;fillColor=#23445D;" vertex="1" parent="55"><mxGeometry x="11.984597701149426" y="44.363783020769915" width="50.03080459770115" height="5.976608187134502" as="geometry"/></mxCell><mxCell id="49" value="" style="rounded=0;whiteSpace=wrap;html=1;direction=east;rotation=-90;strokeColor=#23445d;fillColor=#23445D;" vertex="1" parent="55"><mxGeometry x="28.068965517241395" y="5.942730389189819" width="17.862068965517242" height="5.976608187134502" as="geometry"/></mxCell><mxCell id="50" value="" style="rounded=0;whiteSpace=wrap;html=1;direction=east;rotation=-145;strokeColor=#23445d;fillColor=#23445D;" vertex="1" parent="55"><mxGeometry x="22.54022988505747" y="8.07723331316447" width="13.60919540229885" height="5.976608187134502" as="geometry"/></mxCell><mxCell id="51" value="" style="rounded=0;whiteSpace=wrap;html=1;direction=north;rotation=-135;strokeColor=#23445d;fillColor=#23445D;" vertex="1" parent="55"><mxGeometry x="39.126436781609186" y="3.381326880418783" width="5.954022988505747" height="13.660818713450292" as="geometry"/></mxCell><mxCell id="52" value="" style="rounded=0;whiteSpace=wrap;html=1;direction=south;rotation=-90;strokeColor=#23445d;fillColor=#23445D;" vertex="1" parent="55"><mxGeometry x="32.64505747126438" y="-0.34978423069333076" width="5.954022988505747" height="33.93859649122807" as="geometry"/></mxCell><mxCell id="56" value="" style="verticalLabelPosition=bottom;html=1;verticalAlign=top;align=center;strokeColor=#b46504;shape=mxgraph.azure.azure_website;pointerEvents=1;strokeWidth=2;perimeterSpacing=2;fillColor=#FFB570;" vertex="1" parent="1"><mxGeometry x="325" y="16607" width="40" height="40" as="geometry"/></mxCell><mxCell id="57" value="" style="group" vertex="1" connectable="0" parent="1"><mxGeometry x="101.50000000000003" y="16562.5" width="87" height="85.5" as="geometry"/></mxCell><mxCell id="15" value="" style="rounded=0;whiteSpace=wrap;html=1;sketch=0;fillColor=#fad9d5;fontColor=#000000;fontSize=20;fontStyle=1;direction=east;rotation=-180;strokeColor=none;" parent="57" vertex="1"><mxGeometry y="25.5" width="87" height="60" as="geometry"/></mxCell><mxCell id="25" value="" style="rounded=0;whiteSpace=wrap;html=1;strokeColor=#b85450;direction=east;rotation=-180;fillColor=#B85450;" parent="57" vertex="1"><mxGeometry x="0.9999999999999716" y="46.5" width="85" height="7" as="geometry"/></mxCell><mxCell id="38" value="" style="rounded=0;whiteSpace=wrap;html=1;direction=east;rotation=-90;strokeColor=#B85450;fillColor=#B85450;" vertex="1" parent="57"><mxGeometry x="14.08999999999996" y="52" width="58.82" height="7" as="geometry"/></mxCell><mxCell id="39" value="" style="rounded=0;whiteSpace=wrap;html=1;direction=east;rotation=-90;strokeColor=#B85450;fillColor=#B85450;" vertex="1" parent="57"><mxGeometry x="32.99999999999997" y="7" width="21" height="7" as="geometry"/></mxCell><mxCell id="40" value="" style="rounded=0;whiteSpace=wrap;html=1;direction=east;rotation=-145;strokeColor=#B85450;fillColor=#B85450;" vertex="1" parent="57"><mxGeometry x="26.49999999999997" y="9.5" width="16" height="7" as="geometry"/></mxCell><mxCell id="43" value="" style="rounded=0;whiteSpace=wrap;html=1;direction=north;rotation=-135;strokeColor=#B85450;fillColor=#B85450;" vertex="1" parent="57"><mxGeometry x="45.99999999999997" y="4" width="7" height="16" as="geometry"/></mxCell><mxCell id="45" value="" style="rounded=0;whiteSpace=wrap;html=1;direction=south;rotation=-90;strokeColor=#B85450;fillColor=#B85450;" vertex="1" parent="57"><mxGeometry x="38.37999999999997" y="-0.36999999999898137" width="7" height="39.75" as="geometry"/></mxCell><mxCell id="58" style="edgeStyle=orthogonalEdgeStyle;rounded=0;orthogonalLoop=1;jettySize=auto;html=1;strokeColor=#000000;sketch=1;curved=1;" edge="1" parent="1"><mxGeometry relative="1" as="geometry"><mxPoint x="145" y="16560" as="sourcePoint"/><mxPoint x="243" y="16575" as="targetPoint"/><Array as="points"><mxPoint x="145" y="16537"/><mxPoint x="243" y="16537"/></Array></mxGeometry></mxCell><mxCell id="59" style="edgeStyle=orthogonalEdgeStyle;rounded=0;orthogonalLoop=1;jettySize=auto;html=1;strokeColor=#000000;sketch=1;curved=1;entryX=0.5;entryY=0;entryDx=0;entryDy=0;entryPerimeter=0;" edge="1" parent="1" target="56"><mxGeometry relative="1" as="geometry"><mxPoint x="143" y="16560" as="sourcePoint"/><mxPoint x="253" y="16585" as="targetPoint"/><Array as="points"><mxPoint x="143" y="16534"/><mxPoint x="345" y="16534"/></Array></mxGeometry></mxCell><mxCell id="99" value="&lt;pre style=&quot;font-family: &amp;quot;jetbrains mono&amp;quot; , monospace&quot;&gt;&lt;font color=&quot;#000000&quot; style=&quot;font-size: 14px&quot;&gt;openGiftBox()&lt;/font&gt;&lt;/pre&gt;" style="text;html=1;align=center;verticalAlign=middle;resizable=0;points=[];autosize=1;fontStyle=1" vertex="1" parent="1"><mxGeometry x="33" y="16528" width="114" height="42" as="geometry"/></mxCell><mxCell id="100" value="" style="group" vertex="1" connectable="0" parent="1"><mxGeometry x="227.99999999999994" y="16761.033877797945" width="74.00000000000006" height="72.96612220205134" as="geometry"/></mxCell><mxCell id="101" value="" style="rounded=0;whiteSpace=wrap;html=1;sketch=0;fontSize=20;fontStyle=1;direction=east;rotation=-180;fillColor=#bac8d3;strokeColor=none;" vertex="1" parent="100"><mxGeometry x="2.842170943040401e-14" y="21.73805202661606" width="74" height="51.228070175438596" as="geometry"/></mxCell><mxCell id="102" value="" style="rounded=0;whiteSpace=wrap;html=1;strokeColor=#23445d;direction=east;rotation=-180;fillColor=#23445D;" vertex="1" parent="100"><mxGeometry x="0.8505747126436916" y="39.66787658802059" width="72.29885057471265" height="5.976608187134502" as="geometry"/></mxCell><mxCell id="103" value="" style="rounded=0;whiteSpace=wrap;html=1;direction=east;rotation=-90;strokeColor=#23445d;fillColor=#23445D;" vertex="1" parent="100"><mxGeometry x="11.984597701149426" y="44.363783020769915" width="50.03080459770115" height="5.976608187134502" as="geometry"/></mxCell><mxCell id="104" value="" style="rounded=0;whiteSpace=wrap;html=1;direction=east;rotation=-90;strokeColor=#23445d;fillColor=#23445D;" vertex="1" parent="100"><mxGeometry x="28.068965517241395" y="5.942730389189819" width="17.862068965517242" height="5.976608187134502" as="geometry"/></mxCell><mxCell id="105" value="" style="rounded=0;whiteSpace=wrap;html=1;direction=east;rotation=-145;strokeColor=#23445d;fillColor=#23445D;" vertex="1" parent="100"><mxGeometry x="22.54022988505747" y="8.07723331316447" width="13.60919540229885" height="5.976608187134502" as="geometry"/></mxCell><mxCell id="106" value="" style="rounded=0;whiteSpace=wrap;html=1;direction=north;rotation=-135;strokeColor=#23445d;fillColor=#23445D;" vertex="1" parent="100"><mxGeometry x="39.126436781609186" y="3.381326880418783" width="5.954022988505747" height="13.660818713450292" as="geometry"/></mxCell><mxCell id="107" value="" style="rounded=0;whiteSpace=wrap;html=1;direction=south;rotation=-90;strokeColor=#23445d;fillColor=#23445D;" vertex="1" parent="100"><mxGeometry x="32.64505747126438" y="-0.34978423069333076" width="5.954022988505747" height="33.93859649122807" as="geometry"/></mxCell><mxCell id="109" value="" style="group" vertex="1" connectable="0" parent="1"><mxGeometry x="108.50000000000003" y="16748.5" width="87" height="85.5" as="geometry"/></mxCell><mxCell id="110" value="" style="rounded=0;whiteSpace=wrap;html=1;sketch=0;fillColor=#fad9d5;fontColor=#000000;fontSize=20;fontStyle=1;direction=east;rotation=-180;strokeColor=none;" vertex="1" parent="109"><mxGeometry y="25.5" width="87" height="60" as="geometry"/></mxCell><mxCell id="111" value="" style="rounded=0;whiteSpace=wrap;html=1;strokeColor=#b85450;direction=east;rotation=-180;fillColor=#B85450;" vertex="1" parent="109"><mxGeometry x="0.9999999999999716" y="46.5" width="85" height="7" as="geometry"/></mxCell><mxCell id="112" value="" style="rounded=0;whiteSpace=wrap;html=1;direction=east;rotation=-90;strokeColor=#B85450;fillColor=#B85450;" vertex="1" parent="109"><mxGeometry x="14.08999999999996" y="52" width="58.82" height="7" as="geometry"/></mxCell><mxCell id="113" value="" style="rounded=0;whiteSpace=wrap;html=1;direction=east;rotation=-90;strokeColor=#B85450;fillColor=#B85450;" vertex="1" parent="109"><mxGeometry x="32.99999999999997" y="7" width="21" height="7" as="geometry"/></mxCell><mxCell id="114" value="" style="rounded=0;whiteSpace=wrap;html=1;direction=east;rotation=-145;strokeColor=#B85450;fillColor=#B85450;" vertex="1" parent="109"><mxGeometry x="26.49999999999997" y="9.5" width="16" height="7" as="geometry"/></mxCell><mxCell id="115" value="" style="rounded=0;whiteSpace=wrap;html=1;direction=north;rotation=-135;strokeColor=#B85450;fillColor=#B85450;" vertex="1" parent="109"><mxGeometry x="45.99999999999997" y="4" width="7" height="16" as="geometry"/></mxCell><mxCell id="116" value="" style="rounded=0;whiteSpace=wrap;html=1;direction=south;rotation=-90;strokeColor=#B85450;fillColor=#B85450;" vertex="1" parent="109"><mxGeometry x="38.37999999999997" y="-0.36999999999898137" width="7" height="39.75" as="geometry"/></mxCell><mxCell id="117" style="edgeStyle=orthogonalEdgeStyle;rounded=0;orthogonalLoop=1;jettySize=auto;html=1;strokeColor=#000000;sketch=1;curved=1;" edge="1" parent="1"><mxGeometry relative="1" as="geometry"><mxPoint x="152" y="16746" as="sourcePoint"/><mxPoint x="250" y="16761" as="targetPoint"/><Array as="points"><mxPoint x="152" y="16723"/><mxPoint x="250" y="16723"/></Array></mxGeometry></mxCell><mxCell id="119" value="&lt;pre style=&quot;font-family: &amp;quot;jetbrains mono&amp;quot; , monospace&quot;&gt;&lt;font color=&quot;#000000&quot; style=&quot;font-size: 14px&quot;&gt;openGiftBox()&lt;/font&gt;&lt;/pre&gt;" style="text;html=1;align=center;verticalAlign=middle;resizable=0;points=[];autosize=1;fontStyle=1" vertex="1" parent="1"><mxGeometry x="40" y="16714" width="114" height="42" as="geometry"/></mxCell><mxCell id="120" style="edgeStyle=orthogonalEdgeStyle;rounded=0;orthogonalLoop=1;jettySize=auto;html=1;strokeColor=#000000;sketch=1;curved=1;entryX=0.5;entryY=0;entryDx=0;entryDy=0;entryPerimeter=0;" edge="1" target="130" parent="1"><mxGeometry relative="1" as="geometry"><mxPoint x="260" y="16758" as="sourcePoint"/><mxPoint x="370" y="16771" as="targetPoint"/><Array as="points"><mxPoint x="260" y="16720"/><mxPoint x="462" y="16720"/></Array></mxGeometry></mxCell><mxCell id="121" style="edgeStyle=orthogonalEdgeStyle;rounded=0;orthogonalLoop=1;jettySize=auto;html=1;strokeColor=#000000;sketch=1;curved=1;" edge="1" parent="1"><mxGeometry relative="1" as="geometry"><mxPoint x="262" y="16761" as="sourcePoint"/><mxPoint x="360" y="16761" as="targetPoint"/><Array as="points"><mxPoint x="262" y="16723"/><mxPoint x="360" y="16723"/></Array></mxGeometry></mxCell><mxCell id="122" value="" style="group" vertex="1" connectable="0" parent="1"><mxGeometry x="338" y="16770" width="65" height="64" as="geometry"/></mxCell><mxCell id="123" value="" style="rounded=0;whiteSpace=wrap;html=1;sketch=0;fontSize=20;fontStyle=1;direction=east;rotation=-180;strokeColor=none;fillColor=#C3ABD0;" vertex="1" parent="122"><mxGeometry x="2.4965015040219718e-14" y="19.06686675565603" width="64.99999999999996" height="44.933133244346884" as="geometry"/></mxCell><mxCell id="124" value="" style="rounded=0;whiteSpace=wrap;html=1;direction=east;rotation=-180;strokeColor=#A680B8;fillColor=#A680B8;" vertex="1" parent="122"><mxGeometry x="0.7471264367816204" y="34.793463391178335" width="63.50574712643674" height="5.242198878507136" as="geometry"/></mxCell><mxCell id="125" value="" style="rounded=0;whiteSpace=wrap;html=1;direction=east;rotation=-90;strokeColor=#A680B8;fillColor=#A680B8;" vertex="1" parent="122"><mxGeometry x="10.527011494252866" y="38.91233393857749" width="43.94597701149422" height="5.242198878507136" as="geometry"/></mxCell><mxCell id="126" value="" style="rounded=0;whiteSpace=wrap;html=1;direction=east;rotation=-90;fillColor=#A680B8;strokeColor=#A680B8;" vertex="1" parent="122"><mxGeometry x="24.6551724137931" y="5.212484005316317" width="15.689655172413783" height="5.242198878507136" as="geometry"/></mxCell><mxCell id="127" value="" style="rounded=0;whiteSpace=wrap;html=1;direction=east;rotation=-145;strokeColor=#A680B8;fillColor=#A680B8;" vertex="1" parent="122"><mxGeometry x="19.798850574712628" y="7.084697890495721" width="11.954022988505738" height="5.242198878507136" as="geometry"/></mxCell><mxCell id="128" value="" style="rounded=0;whiteSpace=wrap;html=1;direction=north;rotation=-135;fillColor=#A680B8;strokeColor=#A680B8;" vertex="1" parent="122"><mxGeometry x="34.36781609195399" y="2.965827343099757" width="5.22988505747126" height="11.982168865159169" as="geometry"/></mxCell><mxCell id="129" value="" style="rounded=0;whiteSpace=wrap;html=1;direction=south;rotation=-90;strokeColor=#A680B8;fillColor=#A680B8;" vertex="1" parent="122"><mxGeometry x="28.674712643678152" y="-0.3068025281977204" width="5.22988505747126" height="29.76820077437981" as="geometry"/></mxCell><mxCell id="130" value="" style="verticalLabelPosition=bottom;html=1;verticalAlign=top;align=center;strokeColor=#b46504;shape=mxgraph.azure.azure_website;pointerEvents=1;strokeWidth=2;perimeterSpacing=2;fillColor=#FFB570;" vertex="1" parent="1"><mxGeometry x="442" y="16793" width="40" height="40" as="geometry"/></mxCell><mxCell id="131" value="&lt;pre style=&quot;font-family: &amp;quot;jetbrains mono&amp;quot;, monospace; font-size: 11px;&quot;&gt;&lt;font color=&quot;#000000&quot; style=&quot;font-size: 11px;&quot;&gt;openGiftBox()&lt;/font&gt;&lt;/pre&gt;" style="text;html=1;align=center;verticalAlign=middle;resizable=0;points=[];autosize=1;fontStyle=1;fontSize=11;" vertex="1" parent="1"><mxGeometry x="248" y="16689" width="88" height="39" as="geometry"/></mxCell><mxCell id="161" value="" style="group" vertex="1" connectable="0" parent="1"><mxGeometry x="232.99999999999994" y="16932.033877797945" width="74.00000000000006" height="72.96612220205134" as="geometry"/></mxCell><mxCell id="162" value="" style="rounded=0;whiteSpace=wrap;html=1;sketch=0;fontSize=20;fontStyle=1;direction=east;rotation=-180;fillColor=#bac8d3;strokeColor=none;" vertex="1" parent="161"><mxGeometry x="2.842170943040401e-14" y="21.73805202661606" width="74" height="51.228070175438596" as="geometry"/></mxCell><mxCell id="163" value="" style="rounded=0;whiteSpace=wrap;html=1;strokeColor=#23445d;direction=east;rotation=-180;fillColor=#23445D;" vertex="1" parent="161"><mxGeometry x="0.8505747126436916" y="39.66787658802059" width="72.29885057471265" height="5.976608187134502" as="geometry"/></mxCell><mxCell id="164" value="" style="rounded=0;whiteSpace=wrap;html=1;direction=east;rotation=-90;strokeColor=#23445d;fillColor=#23445D;" vertex="1" parent="161"><mxGeometry x="11.984597701149426" y="44.363783020769915" width="50.03080459770115" height="5.976608187134502" as="geometry"/></mxCell><mxCell id="165" value="" style="rounded=0;whiteSpace=wrap;html=1;direction=east;rotation=-90;strokeColor=#23445d;fillColor=#23445D;" vertex="1" parent="161"><mxGeometry x="28.068965517241395" y="5.942730389189819" width="17.862068965517242" height="5.976608187134502" as="geometry"/></mxCell><mxCell id="166" value="" style="rounded=0;whiteSpace=wrap;html=1;direction=east;rotation=-145;strokeColor=#23445d;fillColor=#23445D;" vertex="1" parent="161"><mxGeometry x="22.54022988505747" y="8.07723331316447" width="13.60919540229885" height="5.976608187134502" as="geometry"/></mxCell><mxCell id="167" value="" style="rounded=0;whiteSpace=wrap;html=1;direction=north;rotation=-135;strokeColor=#23445d;fillColor=#23445D;" vertex="1" parent="161"><mxGeometry x="39.126436781609186" y="3.381326880418783" width="5.954022988505747" height="13.660818713450292" as="geometry"/></mxCell><mxCell id="168" value="" style="rounded=0;whiteSpace=wrap;html=1;direction=south;rotation=-90;strokeColor=#23445d;fillColor=#23445D;" vertex="1" parent="161"><mxGeometry x="32.64505747126438" y="-0.34978423069333076" width="5.954022988505747" height="33.93859649122807" as="geometry"/></mxCell><mxCell id="169" value="" style="group" vertex="1" connectable="0" parent="1"><mxGeometry x="113.50000000000003" y="16919.5" width="87" height="85.5" as="geometry"/></mxCell><mxCell id="170" value="" style="rounded=0;whiteSpace=wrap;html=1;sketch=0;fillColor=#fad9d5;fontColor=#000000;fontSize=20;fontStyle=1;direction=east;rotation=-180;strokeColor=none;" vertex="1" parent="169"><mxGeometry y="25.5" width="87" height="60" as="geometry"/></mxCell><mxCell id="171" value="" style="rounded=0;whiteSpace=wrap;html=1;strokeColor=#b85450;direction=east;rotation=-180;fillColor=#B85450;" vertex="1" parent="169"><mxGeometry x="0.9999999999999716" y="46.5" width="85" height="7" as="geometry"/></mxCell><mxCell id="172" value="" style="rounded=0;whiteSpace=wrap;html=1;direction=east;rotation=-90;strokeColor=#B85450;fillColor=#B85450;" vertex="1" parent="169"><mxGeometry x="14.08999999999996" y="52" width="58.82" height="7" as="geometry"/></mxCell><mxCell id="173" value="" style="rounded=0;whiteSpace=wrap;html=1;direction=east;rotation=-90;strokeColor=#B85450;fillColor=#B85450;" vertex="1" parent="169"><mxGeometry x="32.99999999999997" y="7" width="21" height="7" as="geometry"/></mxCell><mxCell id="174" value="" style="rounded=0;whiteSpace=wrap;html=1;direction=east;rotation=-145;strokeColor=#B85450;fillColor=#B85450;" vertex="1" parent="169"><mxGeometry x="26.49999999999997" y="9.5" width="16" height="7" as="geometry"/></mxCell><mxCell id="175" value="" style="rounded=0;whiteSpace=wrap;html=1;direction=north;rotation=-135;strokeColor=#B85450;fillColor=#B85450;" vertex="1" parent="169"><mxGeometry x="45.99999999999997" y="4" width="7" height="16" as="geometry"/></mxCell><mxCell id="176" value="" style="rounded=0;whiteSpace=wrap;html=1;direction=south;rotation=-90;strokeColor=#B85450;fillColor=#B85450;" vertex="1" parent="169"><mxGeometry x="38.37999999999997" y="-0.36999999999898137" width="7" height="39.75" as="geometry"/></mxCell><mxCell id="177" style="edgeStyle=orthogonalEdgeStyle;rounded=0;orthogonalLoop=1;jettySize=auto;html=1;strokeColor=#000000;sketch=1;curved=1;" edge="1" parent="1"><mxGeometry relative="1" as="geometry"><mxPoint x="157" y="16917" as="sourcePoint"/><mxPoint x="255" y="16932" as="targetPoint"/><Array as="points"><mxPoint x="157" y="16894"/><mxPoint x="255" y="16894"/></Array></mxGeometry></mxCell><mxCell id="178" value="&lt;pre style=&quot;font-family: &amp;quot;jetbrains mono&amp;quot; , monospace&quot;&gt;&lt;font color=&quot;#000000&quot; style=&quot;font-size: 14px&quot;&gt;openGiftBox()&lt;/font&gt;&lt;/pre&gt;" style="text;html=1;align=center;verticalAlign=middle;resizable=0;points=[];autosize=1;fontStyle=1" vertex="1" parent="1"><mxGeometry x="45" y="16885" width="114" height="42" as="geometry"/></mxCell><mxCell id="180" style="edgeStyle=orthogonalEdgeStyle;rounded=0;orthogonalLoop=1;jettySize=auto;html=1;strokeColor=#000000;sketch=1;curved=1;" edge="1" parent="1"><mxGeometry relative="1" as="geometry"><mxPoint x="267" y="16932" as="sourcePoint"/><mxPoint x="365" y="16932" as="targetPoint"/><Array as="points"><mxPoint x="267" y="16894"/><mxPoint x="365" y="16894"/></Array></mxGeometry></mxCell><mxCell id="181" value="" style="group" vertex="1" connectable="0" parent="1"><mxGeometry x="343" y="16941" width="65" height="64" as="geometry"/></mxCell><mxCell id="182" value="" style="rounded=0;whiteSpace=wrap;html=1;sketch=0;fontSize=20;fontStyle=1;direction=east;rotation=-180;strokeColor=none;fillColor=#C3ABD0;" vertex="1" parent="181"><mxGeometry x="2.4965015040219718e-14" y="19.06686675565603" width="64.99999999999996" height="44.933133244346884" as="geometry"/></mxCell><mxCell id="183" value="" style="rounded=0;whiteSpace=wrap;html=1;direction=east;rotation=-180;strokeColor=#A680B8;fillColor=#A680B8;" vertex="1" parent="181"><mxGeometry x="0.7471264367816204" y="34.793463391178335" width="63.50574712643674" height="5.242198878507136" as="geometry"/></mxCell><mxCell id="184" value="" style="rounded=0;whiteSpace=wrap;html=1;direction=east;rotation=-90;strokeColor=#A680B8;fillColor=#A680B8;" vertex="1" parent="181"><mxGeometry x="10.527011494252866" y="38.91233393857749" width="43.94597701149422" height="5.242198878507136" as="geometry"/></mxCell><mxCell id="185" value="" style="rounded=0;whiteSpace=wrap;html=1;direction=east;rotation=-90;fillColor=#A680B8;strokeColor=#A680B8;" vertex="1" parent="181"><mxGeometry x="24.6551724137931" y="5.212484005316317" width="15.689655172413783" height="5.242198878507136" as="geometry"/></mxCell><mxCell id="186" value="" style="rounded=0;whiteSpace=wrap;html=1;direction=east;rotation=-145;strokeColor=#A680B8;fillColor=#A680B8;" vertex="1" parent="181"><mxGeometry x="19.798850574712628" y="7.084697890495721" width="11.954022988505738" height="5.242198878507136" as="geometry"/></mxCell><mxCell id="187" value="" style="rounded=0;whiteSpace=wrap;html=1;direction=north;rotation=-135;fillColor=#A680B8;strokeColor=#A680B8;" vertex="1" parent="181"><mxGeometry x="34.36781609195399" y="2.965827343099757" width="5.22988505747126" height="11.982168865159169" as="geometry"/></mxCell><mxCell id="188" value="" style="rounded=0;whiteSpace=wrap;html=1;direction=south;rotation=-90;strokeColor=#A680B8;fillColor=#A680B8;" vertex="1" parent="181"><mxGeometry x="28.674712643678152" y="-0.3068025281977204" width="5.22988505747126" height="29.76820077437981" as="geometry"/></mxCell><mxCell id="190" value="&lt;pre style=&quot;font-family: &amp;quot;jetbrains mono&amp;quot;, monospace; font-size: 11px;&quot;&gt;&lt;font color=&quot;#000000&quot; style=&quot;font-size: 11px;&quot;&gt;openGiftBox()&lt;/font&gt;&lt;/pre&gt;" style="text;html=1;align=center;verticalAlign=middle;resizable=0;points=[];autosize=1;fontStyle=1;fontSize=11;" vertex="1" parent="1"><mxGeometry x="253" y="16860" width="88" height="39" as="geometry"/></mxCell><mxCell id="192" style="edgeStyle=orthogonalEdgeStyle;rounded=0;orthogonalLoop=1;jettySize=auto;html=1;strokeColor=#000000;sketch=1;curved=1;entryX=0.5;entryY=0;entryDx=0;entryDy=0;entryPerimeter=0;" edge="1" target="202" parent="1"><mxGeometry relative="1" as="geometry"><mxPoint x="374" y="16930" as="sourcePoint"/><mxPoint x="484" y="16943" as="targetPoint"/><Array as="points"><mxPoint x="374" y="16892"/><mxPoint x="480" y="16892"/></Array></mxGeometry></mxCell><mxCell id="193" value="&lt;pre style=&quot;font-family: &amp;quot;jetbrains mono&amp;quot;, monospace; font-size: 10px;&quot;&gt;&lt;font color=&quot;#000000&quot; style=&quot;font-size: 10px;&quot;&gt;openGiftBox()&lt;/font&gt;&lt;/pre&gt;" style="text;html=1;align=center;verticalAlign=middle;resizable=0;points=[];autosize=1;fontStyle=1;fontSize=10;" vertex="1" parent="1"><mxGeometry x="369" y="16863" width="75" height="36" as="geometry"/></mxCell><mxCell id="202" value="" style="verticalLabelPosition=bottom;html=1;verticalAlign=top;align=center;strokeColor=#b46504;shape=mxgraph.azure.azure_website;pointerEvents=1;strokeWidth=2;perimeterSpacing=2;fillColor=#FFB570;" vertex="1" parent="1"><mxGeometry x="460" y="16959" width="40" height="40" as="geometry"/></mxCell><mxCell id="203" value="" style="group" vertex="1" connectable="0" parent="1"><mxGeometry x="233.99999999999994" y="17142.033877797945" width="74.00000000000006" height="72.96612220205134" as="geometry"/></mxCell><mxCell id="204" value="" style="rounded=0;whiteSpace=wrap;html=1;sketch=0;fontSize=20;fontStyle=1;direction=east;rotation=-180;fillColor=#bac8d3;strokeColor=none;" vertex="1" parent="203"><mxGeometry x="2.842170943040401e-14" y="21.73805202661606" width="74" height="51.228070175438596" as="geometry"/></mxCell><mxCell id="205" value="" style="rounded=0;whiteSpace=wrap;html=1;strokeColor=#23445d;direction=east;rotation=-180;fillColor=#23445D;" vertex="1" parent="203"><mxGeometry x="0.8505747126436916" y="39.66787658802059" width="72.29885057471265" height="5.976608187134502" as="geometry"/></mxCell><mxCell id="206" value="" style="rounded=0;whiteSpace=wrap;html=1;direction=east;rotation=-90;strokeColor=#23445d;fillColor=#23445D;" vertex="1" parent="203"><mxGeometry x="11.984597701149426" y="44.363783020769915" width="50.03080459770115" height="5.976608187134502" as="geometry"/></mxCell><mxCell id="207" value="" style="rounded=0;whiteSpace=wrap;html=1;direction=east;rotation=-90;strokeColor=#23445d;fillColor=#23445D;" vertex="1" parent="203"><mxGeometry x="28.068965517241395" y="5.942730389189819" width="17.862068965517242" height="5.976608187134502" as="geometry"/></mxCell><mxCell id="208" value="" style="rounded=0;whiteSpace=wrap;html=1;direction=east;rotation=-145;strokeColor=#23445d;fillColor=#23445D;" vertex="1" parent="203"><mxGeometry x="22.54022988505747" y="8.07723331316447" width="13.60919540229885" height="5.976608187134502" as="geometry"/></mxCell><mxCell id="209" value="" style="rounded=0;whiteSpace=wrap;html=1;direction=north;rotation=-135;strokeColor=#23445d;fillColor=#23445D;" vertex="1" parent="203"><mxGeometry x="39.126436781609186" y="3.381326880418783" width="5.954022988505747" height="13.660818713450292" as="geometry"/></mxCell><mxCell id="210" value="" style="rounded=0;whiteSpace=wrap;html=1;direction=south;rotation=-90;strokeColor=#23445d;fillColor=#23445D;" vertex="1" parent="203"><mxGeometry x="32.64505747126438" y="-0.34978423069333076" width="5.954022988505747" height="33.93859649122807" as="geometry"/></mxCell><mxCell id="211" value="" style="group" vertex="1" connectable="0" parent="1"><mxGeometry x="114.50000000000003" y="17129.5" width="87" height="85.5" as="geometry"/></mxCell><mxCell id="212" value="" style="rounded=0;whiteSpace=wrap;html=1;sketch=0;fillColor=#fad9d5;fontColor=#000000;fontSize=20;fontStyle=1;direction=east;rotation=-180;strokeColor=none;" vertex="1" parent="211"><mxGeometry y="25.5" width="87" height="60" as="geometry"/></mxCell><mxCell id="213" value="" style="rounded=0;whiteSpace=wrap;html=1;strokeColor=#b85450;direction=east;rotation=-180;fillColor=#B85450;" vertex="1" parent="211"><mxGeometry x="0.9999999999999716" y="46.5" width="85" height="7" as="geometry"/></mxCell><mxCell id="214" value="" style="rounded=0;whiteSpace=wrap;html=1;direction=east;rotation=-90;strokeColor=#B85450;fillColor=#B85450;" vertex="1" parent="211"><mxGeometry x="14.08999999999996" y="52" width="58.82" height="7" as="geometry"/></mxCell><mxCell id="215" value="" style="rounded=0;whiteSpace=wrap;html=1;direction=east;rotation=-90;strokeColor=#B85450;fillColor=#B85450;" vertex="1" parent="211"><mxGeometry x="32.99999999999997" y="7" width="21" height="7" as="geometry"/></mxCell><mxCell id="216" value="" style="rounded=0;whiteSpace=wrap;html=1;direction=east;rotation=-145;strokeColor=#B85450;fillColor=#B85450;" vertex="1" parent="211"><mxGeometry x="26.49999999999997" y="9.5" width="16" height="7" as="geometry"/></mxCell><mxCell id="217" value="" style="rounded=0;whiteSpace=wrap;html=1;direction=north;rotation=-135;strokeColor=#B85450;fillColor=#B85450;" vertex="1" parent="211"><mxGeometry x="45.99999999999997" y="4" width="7" height="16" as="geometry"/></mxCell><mxCell id="218" value="" style="rounded=0;whiteSpace=wrap;html=1;direction=south;rotation=-90;strokeColor=#B85450;fillColor=#B85450;" vertex="1" parent="211"><mxGeometry x="38.37999999999997" y="-0.36999999999898137" width="7" height="39.75" as="geometry"/></mxCell><mxCell id="219" style="edgeStyle=orthogonalEdgeStyle;rounded=0;orthogonalLoop=1;jettySize=auto;html=1;strokeColor=#000000;sketch=1;curved=1;" edge="1" parent="1"><mxGeometry relative="1" as="geometry"><mxPoint x="158" y="17127" as="sourcePoint"/><mxPoint x="256" y="17142" as="targetPoint"/><Array as="points"><mxPoint x="158" y="17104"/><mxPoint x="256" y="17104"/></Array></mxGeometry></mxCell><mxCell id="236" style="edgeStyle=orthogonalEdgeStyle;curved=1;rounded=0;sketch=0;orthogonalLoop=1;jettySize=auto;html=1;strokeColor=#b46504;fontFamily=Verdana;fontSize=10;strokeWidth=3;fillColor=#fad7ac;" edge="1" parent="1" source="220"><mxGeometry relative="1" as="geometry"><mxPoint x="262" y="17127.241379310344" as="targetPoint"/></mxGeometry></mxCell><mxCell id="220" value="&lt;div style=&quot;font-size: 10px;&quot;&gt;&lt;font color=&quot;#000000&quot; style=&quot;font-size: 10px;&quot;&gt;Reccursive Case&lt;/font&gt;&lt;/div&gt;" style="text;html=1;align=center;verticalAlign=middle;resizable=0;points=[];autosize=1;fontStyle=1;fontFamily=Verdana;fontSize=10;" vertex="1" parent="1"><mxGeometry x="211" y="17084" width="102" height="16" as="geometry"/></mxCell><mxCell id="221" style="edgeStyle=orthogonalEdgeStyle;rounded=0;orthogonalLoop=1;jettySize=auto;html=1;strokeColor=#000000;sketch=1;curved=1;" edge="1" parent="1"><mxGeometry relative="1" as="geometry"><mxPoint x="268" y="17142" as="sourcePoint"/><mxPoint x="366" y="17142" as="targetPoint"/><Array as="points"><mxPoint x="268" y="17104"/><mxPoint x="366" y="17104"/></Array></mxGeometry></mxCell><mxCell id="222" value="" style="group" vertex="1" connectable="0" parent="1"><mxGeometry x="344" y="17151" width="65" height="64" as="geometry"/></mxCell><mxCell id="223" value="" style="rounded=0;whiteSpace=wrap;html=1;sketch=0;fontSize=20;fontStyle=1;direction=east;rotation=-180;strokeColor=none;fillColor=#C3ABD0;" vertex="1" parent="222"><mxGeometry x="2.4965015040219718e-14" y="19.06686675565603" width="64.99999999999996" height="44.933133244346884" as="geometry"/></mxCell><mxCell id="224" value="" style="rounded=0;whiteSpace=wrap;html=1;direction=east;rotation=-180;strokeColor=#A680B8;fillColor=#A680B8;" vertex="1" parent="222"><mxGeometry x="0.7471264367816204" y="34.793463391178335" width="63.50574712643674" height="5.242198878507136" as="geometry"/></mxCell><mxCell id="225" value="" style="rounded=0;whiteSpace=wrap;html=1;direction=east;rotation=-90;strokeColor=#A680B8;fillColor=#A680B8;" vertex="1" parent="222"><mxGeometry x="10.527011494252866" y="38.91233393857749" width="43.94597701149422" height="5.242198878507136" as="geometry"/></mxCell><mxCell id="226" value="" style="rounded=0;whiteSpace=wrap;html=1;direction=east;rotation=-90;fillColor=#A680B8;strokeColor=#A680B8;" vertex="1" parent="222"><mxGeometry x="24.6551724137931" y="5.212484005316317" width="15.689655172413783" height="5.242198878507136" as="geometry"/></mxCell><mxCell id="227" value="" style="rounded=0;whiteSpace=wrap;html=1;direction=east;rotation=-145;strokeColor=#A680B8;fillColor=#A680B8;" vertex="1" parent="222"><mxGeometry x="19.798850574712628" y="7.084697890495721" width="11.954022988505738" height="5.242198878507136" as="geometry"/></mxCell><mxCell id="228" value="" style="rounded=0;whiteSpace=wrap;html=1;direction=north;rotation=-135;fillColor=#A680B8;strokeColor=#A680B8;" vertex="1" parent="222"><mxGeometry x="34.36781609195399" y="2.965827343099757" width="5.22988505747126" height="11.982168865159169" as="geometry"/></mxCell><mxCell id="229" value="" style="rounded=0;whiteSpace=wrap;html=1;direction=south;rotation=-90;strokeColor=#A680B8;fillColor=#A680B8;" vertex="1" parent="222"><mxGeometry x="28.674712643678152" y="-0.3068025281977204" width="5.22988505747126" height="29.76820077437981" as="geometry"/></mxCell><mxCell id="231" style="edgeStyle=orthogonalEdgeStyle;rounded=0;orthogonalLoop=1;jettySize=auto;html=1;strokeColor=#000000;sketch=1;curved=1;entryX=0.5;entryY=0;entryDx=0;entryDy=0;entryPerimeter=0;" edge="1" target="233" parent="1"><mxGeometry relative="1" as="geometry"><mxPoint x="375" y="17140" as="sourcePoint"/><mxPoint x="485" y="17153" as="targetPoint"/><Array as="points"><mxPoint x="375" y="17102"/><mxPoint x="481" y="17102"/></Array></mxGeometry></mxCell><mxCell id="233" value="" style="verticalLabelPosition=bottom;html=1;verticalAlign=top;align=center;strokeColor=#b46504;shape=mxgraph.azure.azure_website;pointerEvents=1;strokeWidth=2;perimeterSpacing=2;fillColor=#FFB570;" vertex="1" parent="1"><mxGeometry x="461" y="17169" width="40" height="40" as="geometry"/></mxCell><mxCell id="234" value="&lt;div style=&quot;font-size: 10px;&quot;&gt;&lt;font color=&quot;#000000&quot; style=&quot;font-size: 10px;&quot;&gt;Reccursive Case&lt;/font&gt;&lt;/div&gt;" style="text;html=1;align=center;verticalAlign=middle;resizable=0;points=[];autosize=1;fontStyle=1;fontFamily=Verdana;fontSize=10;" vertex="1" parent="1"><mxGeometry x="316" y="17084" width="102" height="16" as="geometry"/></mxCell><mxCell id="235" value="&lt;div style=&quot;font-size: 10px&quot;&gt;&lt;font color=&quot;#000000&quot; style=&quot;font-size: 10px&quot;&gt;Base Case&lt;/font&gt;&lt;/div&gt;" style="text;html=1;align=center;verticalAlign=middle;resizable=0;points=[];autosize=1;fontStyle=1;fontFamily=Verdana;fontSize=10;" vertex="1" parent="1"><mxGeometry x="446" y="17084" width="68" height="16" as="geometry"/></mxCell><mxCell id="237" style="edgeStyle=orthogonalEdgeStyle;curved=1;rounded=0;sketch=0;orthogonalLoop=1;jettySize=auto;html=1;strokeColor=#b46504;fontFamily=Verdana;fontSize=10;strokeWidth=3;fillColor=#fad7ac;" edge="1" parent="1"><mxGeometry relative="1" as="geometry"><mxPoint x="372" y="17130.241379310344" as="targetPoint"/><mxPoint x="372.0344827586207" y="17103" as="sourcePoint"/></mxGeometry></mxCell><mxCell id="238" style="edgeStyle=orthogonalEdgeStyle;curved=1;rounded=0;sketch=0;orthogonalLoop=1;jettySize=auto;html=1;strokeColor=#b46504;fontFamily=Verdana;fontSize=10;strokeWidth=3;fillColor=#fad7ac;" edge="1" parent="1"><mxGeometry relative="1" as="geometry"><mxPoint x="482" y="17130.241379310344" as="targetPoint"/><mxPoint x="482.0344827586207" y="17103" as="sourcePoint"/></mxGeometry></mxCell><mxCell id="240" value="" style="shape=cylinder3;whiteSpace=wrap;html=1;boundedLbl=1;backgroundOutline=1;size=15;lid=0;sketch=1;strokeColor=#1A1A1A;strokeWidth=3;fillColor=none;gradientColor=none;fontFamily=Verdana;fontSize=10;" vertex="1" parent="1"><mxGeometry x="128.5" y="17239" width="115.5" height="230" as="geometry"/></mxCell><mxCell id="242" value="&lt;pre&gt;&lt;font color=&quot;#1a1a1a&quot; style=&quot;font-size: 12px&quot;&gt;methodOne()&lt;/font&gt;&lt;/pre&gt;" style="shape=cylinder3;whiteSpace=wrap;html=1;boundedLbl=1;backgroundOutline=1;size=15;sketch=0;strokeColor=#b46504;strokeWidth=3;fillColor=#fad7ac;fontFamily=Verdana;fontSize=10;" vertex="1" parent="1"><mxGeometry x="136.5" y="17382" width="96.5" height="80" as="geometry"/></mxCell><mxCell id="245" value="&lt;pre&gt;&lt;font color=&quot;#1a1a1a&quot; style=&quot;font-size: 12px&quot;&gt;methodTwo()&lt;/font&gt;&lt;/pre&gt;" style="shape=cylinder3;whiteSpace=wrap;html=1;boundedLbl=1;backgroundOutline=1;size=15;sketch=0;strokeColor=#23445d;strokeWidth=3;fillColor=#bac8d3;fontFamily=Verdana;fontSize=10;" vertex="1" parent="1"><mxGeometry x="136.5" y="17321" width="96.5" height="80" as="geometry"/></mxCell><mxCell id="246" value="&lt;pre&gt;&lt;font color=&quot;#1a1a1a&quot; style=&quot;font-size: 12px&quot;&gt;methodThree()&lt;/font&gt;&lt;/pre&gt;" style="shape=cylinder3;whiteSpace=wrap;html=1;boundedLbl=1;backgroundOutline=1;size=15;sketch=0;strokeColor=#ae4132;strokeWidth=3;fillColor=#fad9d5;fontFamily=Verdana;fontSize=10;" vertex="1" parent="1"><mxGeometry x="136.5" y="17261" width="96.5" height="80" as="geometry"/></mxCell><mxCell id="247" value="" style="shape=cylinder3;whiteSpace=wrap;html=1;boundedLbl=1;backgroundOutline=1;size=15;lid=0;sketch=1;strokeColor=#1A1A1A;strokeWidth=3;fillColor=none;gradientColor=none;fontFamily=Verdana;fontSize=10;" vertex="1" parent="1"><mxGeometry x="127" y="17539" width="115.5" height="230" as="geometry"/></mxCell><mxCell id="248" value="&lt;pre&gt;&lt;font color=&quot;#1a1a1a&quot; style=&quot;font-size: 12px&quot;&gt;methodOne()&lt;/font&gt;&lt;/pre&gt;" style="shape=cylinder3;whiteSpace=wrap;html=1;boundedLbl=1;backgroundOutline=1;size=15;sketch=0;strokeColor=#b46504;strokeWidth=3;fillColor=#fad7ac;fontFamily=Verdana;fontSize=10;" vertex="1" parent="1"><mxGeometry x="135" y="17682" width="96.5" height="80" as="geometry"/></mxCell><mxCell id="249" value="&lt;pre&gt;&lt;font color=&quot;#1a1a1a&quot; style=&quot;font-size: 12px&quot;&gt;methodTwo()&lt;/font&gt;&lt;/pre&gt;" style="shape=cylinder3;whiteSpace=wrap;html=1;boundedLbl=1;backgroundOutline=1;size=15;sketch=0;strokeColor=#23445d;strokeWidth=3;fillColor=#bac8d3;fontFamily=Verdana;fontSize=10;" vertex="1" parent="1"><mxGeometry x="135" y="17621" width="96.5" height="80" as="geometry"/></mxCell><mxCell id="251" value="" style="shape=cylinder3;whiteSpace=wrap;html=1;boundedLbl=1;backgroundOutline=1;size=15;lid=0;sketch=1;strokeColor=#1A1A1A;strokeWidth=3;fillColor=none;gradientColor=none;fontFamily=Verdana;fontSize=10;" vertex="1" parent="1"><mxGeometry x="127" y="17808" width="115.5" height="230" as="geometry"/></mxCell><mxCell id="252" value="&lt;pre&gt;&lt;font color=&quot;#1a1a1a&quot; style=&quot;font-size: 12px&quot;&gt;methodOne()&lt;/font&gt;&lt;/pre&gt;" style="shape=cylinder3;whiteSpace=wrap;html=1;boundedLbl=1;backgroundOutline=1;size=15;sketch=0;strokeColor=#b46504;strokeWidth=3;fillColor=#fad7ac;fontFamily=Verdana;fontSize=10;" vertex="1" parent="1"><mxGeometry x="135" y="17951" width="96.5" height="80" as="geometry"/></mxCell><mxCell id="254" value="" style="shape=cylinder3;whiteSpace=wrap;html=1;boundedLbl=1;backgroundOutline=1;size=15;lid=0;sketch=1;strokeColor=#1A1A1A;strokeWidth=3;fillColor=none;gradientColor=none;fontFamily=Verdana;fontSize=10;" vertex="1" parent="1"><mxGeometry x="128.5" y="18066" width="115.5" height="230" as="geometry"/></mxCell><mxCell id="256" value="" style="shape=cylinder3;whiteSpace=wrap;html=1;boundedLbl=1;backgroundOutline=1;size=15;lid=0;sketch=1;strokeColor=#1A1A1A;strokeWidth=3;fillColor=none;gradientColor=none;fontFamily=Verdana;fontSize=10;" vertex="1" parent="1"><mxGeometry x="127" y="18343" width="115.5" height="294" as="geometry"/></mxCell><mxCell id="257" value="&lt;pre&gt;&lt;font color=&quot;#1a1a1a&quot; style=&quot;font-size: 20px&quot;&gt;4!&lt;/font&gt;&lt;/pre&gt;" style="shape=cylinder3;whiteSpace=wrap;html=1;boundedLbl=1;backgroundOutline=1;size=15;sketch=0;strokeColor=#b46504;strokeWidth=3;fillColor=#fad7ac;fontFamily=Verdana;fontSize=10;" vertex="1" parent="1"><mxGeometry x="135" y="18550" width="96.5" height="80" as="geometry"/></mxCell><mxCell id="258" value="&lt;pre&gt;&lt;font color=&quot;#1a1a1a&quot; style=&quot;font-size: 20px&quot;&gt;3!&lt;/font&gt;&lt;/pre&gt;" style="shape=cylinder3;whiteSpace=wrap;html=1;boundedLbl=1;backgroundOutline=1;size=15;sketch=0;strokeColor=#23445d;strokeWidth=3;fillColor=#bac8d3;fontFamily=Verdana;fontSize=10;" vertex="1" parent="1"><mxGeometry x="135" y="18489" width="96.5" height="80" as="geometry"/></mxCell><mxCell id="259" value="&lt;pre&gt;&lt;font color=&quot;#1a1a1a&quot; style=&quot;font-size: 20px&quot;&gt;2!&lt;/font&gt;&lt;/pre&gt;" style="shape=cylinder3;whiteSpace=wrap;html=1;boundedLbl=1;backgroundOutline=1;size=15;sketch=0;strokeColor=#ae4132;strokeWidth=3;fillColor=#fad9d5;fontFamily=Verdana;fontSize=10;" vertex="1" parent="1"><mxGeometry x="135" y="18429" width="96.5" height="80" as="geometry"/></mxCell><mxCell id="260" value="&lt;pre&gt;&lt;font color=&quot;#1a1a1a&quot; style=&quot;font-size: 20px&quot;&gt;1!&lt;/font&gt;&lt;/pre&gt;" style="shape=cylinder3;whiteSpace=wrap;html=1;boundedLbl=1;backgroundOutline=1;size=15;sketch=0;strokeColor=#56517e;strokeWidth=3;fillColor=#d0cee2;fontFamily=Verdana;fontSize=10;" vertex="1" parent="1"><mxGeometry x="135" y="18367" width="96.5" height="80" as="geometry"/></mxCell></root></mxGraphModel></diagram></mxfile>